<?xml version="1.0" encoding="UTF-8" standalone="no"?>
<!DOCTYPE svg PUBLIC "-//W3C//DTD SVG 1.1//EN" "http://www.w3.org/Graphics/SVG/1.1/DTD/svg11.dtd">
<svg xmlns:xl="http://www.w3.org/1999/xlink" xmlns="http://www.w3.org/2000/svg" xmlns:dc="http://purl.org/dc/elements/1.1/" version="1.1" viewBox="-195.5 -473.5 741 266" width="741" height="266">
  <defs/>
  <g id="Canvas_1" fill-opacity="1" stroke="none" stroke-dasharray="none" fill="none" stroke-opacity="1">
    <title>Canvas 1</title>
    <rect fill="white" x="-195.5" y="-473.5" width="741" height="266"/>
    <g id="Canvas_1_Layer_1">
      <title>Layer 1</title>
      <g id="Graphic_519">
        <rect x="85" y="-473" width="180" height="120" fill="white"/>
        <rect x="85" y="-473" width="180" height="120" stroke="black" stroke-linecap="round" stroke-linejoin="round" stroke-width="1"/>
      </g>
      <g id="Graphic_518">
        <rect x="134" y="-463" width="82.40741" height="100" id="path"/>
        <clipPath id="clip_path">
          <use xl:href="#path"/>
        </clipPath>
        <g clip-path="url(#clip_path)">
          <image xl:href="image3.png" width="445" height="540" transform="translate(134 -463) scale(.18518519)"/>
        </g>
      </g>
      <g id="Graphic_520">
        <circle cx="35" cy="-413" r="25.0000399475474" fill="white"/>
        <circle cx="35" cy="-413" r="25.0000399475474" stroke="black" stroke-linecap="round" stroke-linejoin="round" stroke-width="1"/>
      </g>
      <g id="Graphic_522">
        <rect x="-195" y="-473" width="180" height="120" fill="white"/>
        <rect x="-195" y="-473" width="180" height="120" stroke="black" stroke-linecap="round" stroke-linejoin="round" stroke-width="1"/>
        <text transform="translate(-190 -422.224)" fill="black">
          <tspan font-family="Helvetica Neue" font-size="16" fill="black" x="68.264" y="15" xml:space="preserve">User</tspan>
        </text>
      </g>
      <g id="Graphic_524">
        <circle cx="315" cy="-413" r="25.0000399475474" fill="white"/>
        <circle cx="315" cy="-413" r="25.0000399475474" stroke="black" stroke-linecap="round" stroke-linejoin="round" stroke-width="1"/>
      </g>
      <g id="Graphic_525">
        <rect x="365" y="-473" width="180" height="120" fill="white"/>
        <rect x="365" y="-473" width="180" height="120" stroke="black" stroke-linecap="round" stroke-linejoin="round" stroke-width="1"/>
        <text transform="translate(370 -422.224)" fill="black">
          <tspan font-family="Helvetica Neue" font-size="16" fill="black" x="40.24" y="15" xml:space="preserve">Environment</tspan>
        </text>
      </g>
      <g id="Graphic_526">
        <path d="M 94 -328 L 256 -328 C 260.97056 -328 265 -323.97056 265 -319 L 265 -217 C 265 -212.02944 260.97056 -208 256 -208 L 94 -208 C 89.02944 -208 85 -212.02944 85 -217 L 85 -319 C 85 -323.97056 89.02944 -328 94 -328 Z" fill="white"/>
        <path d="M 94 -328 L 256 -328 C 260.97056 -328 265 -323.97056 265 -319 L 265 -217 C 265 -212.02944 260.97056 -208 256 -208 L 94 -208 C 89.02944 -208 85 -212.02944 85 -217 L 85 -319 C 85 -323.97056 89.02944 -328 94 -328 Z" stroke="black" stroke-linecap="round" stroke-linejoin="round" stroke-width="1"/>
        <text transform="translate(90 -277.224)" fill="black">
          <tspan font-family="Helvetica Neue" font-size="16" fill="black" x="55.656" y="15" xml:space="preserve">Memory</tspan>
        </text>
      </g>
      <g id="Line_530">
        <line x1="-15" y1="-413" x2="9.999987" y2="-413" stroke="#353f58" stroke-linecap="round" stroke-linejoin="round" stroke-width="1"/>
      </g>
      <g id="Line_531">
        <line x1="60.00001" y1="-413" x2="85" y2="-413" stroke="#353f58" stroke-linecap="round" stroke-linejoin="round" stroke-width="1"/>
      </g>
      <g id="Line_532">
        <line x1="265" y1="-413" x2="290" y2="-413" stroke="#353f58" stroke-linecap="round" stroke-linejoin="round" stroke-width="1"/>
      </g>
      <g id="Line_533">
        <line x1="340" y1="-413" x2="365" y2="-413" stroke="#353f58" stroke-linecap="round" stroke-linejoin="round" stroke-width="1"/>
      </g>
      <g id="Line_535">
        <line x1="175" y1="-328" x2="175" y2="-353" stroke="#353f58" stroke-linecap="round" stroke-linejoin="round" stroke-width="1"/>
      </g>
    </g>
  </g>
</svg>
