<?xml version="1.0" encoding="UTF-8" standalone="no"?>
<!DOCTYPE svg PUBLIC "-//W3C//DTD SVG 1.1//EN" "http://www.w3.org/Graphics/SVG/1.1/DTD/svg11.dtd">
<svg version="1.1" xmlns:xl="http://www.w3.org/1999/xlink" xmlns:dc="http://purl.org/dc/elements/1.1/" xmlns="http://www.w3.org/2000/svg" viewBox="-.5 -700.5 721 101" width="721" height="101">
  <defs>
    <marker orient="auto" overflow="visible" markerUnits="strokeWidth" id="FilledArrow_Marker" stroke-linejoin="miter" stroke-miterlimit="10" viewBox="-1 -4 10 8" markerWidth="10" markerHeight="8" color="#353f58">
      <g>
        <path d="M 8 0 L 0 -3 L 0 3 Z" fill="currentColor" stroke="currentColor" stroke-width="1"/>
      </g>
    </marker>
  </defs>
  <g id="Canvas_1" stroke="none" stroke-opacity="1" stroke-dasharray="none" fill-opacity="1" fill="none">
    <title>Canvas 1</title>
    <rect fill="white" x="-.5" y="-700.5" width="721" height="101"/>
    <g id="Canvas_1_Layer_1">
      <title>Layer 1</title>
      <g id="Graphic_537">
        <path d="M 9 -700 L 141 -700 C 145.97056 -700 150 -695.9706 150 -691 L 150 -609 C 150 -604.02944 145.97056 -600 141 -600 L 9 -600 C 4.0294373 -600 6087184e-22 -604.02944 0 -609 L 53290705e-22 -691 C 5937789e-21 -695.9706 4.0294373 -700 9 -700 Z" fill="white"/>
        <path d="M 9 -700 L 141 -700 C 145.97056 -700 150 -695.9706 150 -691 L 150 -609 C 150 -604.02944 145.97056 -600 141 -600 L 9 -600 C 4.0294373 -600 6087184e-22 -604.02944 0 -609 L 53290705e-22 -691 C 5937789e-21 -695.9706 4.0294373 -700 9 -700 Z" stroke="black" stroke-linecap="round" stroke-linejoin="round" stroke-width="1"/>
        <text transform="translate(5 -668.448)" fill="#353f58">
          <tspan font-family="Helvetica Neue" font-size="16" fill="#353f58" x="42.296" y="15" xml:space="preserve">Scratch</tspan>
          <tspan font-family="Helvetica Neue" font-size="16" fill="#353f58" x="47.624" y="33.448" xml:space="preserve">Model</tspan>
        </text>
      </g>
      <g id="Graphic_538">
        <path d="M 199 -700 L 331 -700 C 335.97056 -700 340 -695.9706 340 -691 L 340 -609 C 340 -604.02944 335.97056 -600 331 -600 L 199 -600 C 194.02944 -600 190 -604.02944 190 -609 L 190 -691 C 190 -695.9706 194.02944 -700 199 -700 Z" fill="white"/>
        <path d="M 199 -700 L 331 -700 C 335.97056 -700 340 -695.9706 340 -691 L 340 -609 C 340 -604.02944 335.97056 -600 331 -600 L 199 -600 C 194.02944 -600 190 -604.02944 190 -609 L 190 -691 C 190 -695.9706 194.02944 -700 199 -700 Z" stroke="black" stroke-linecap="round" stroke-linejoin="round" stroke-width="1"/>
        <text transform="translate(195 -668.448)" fill="#353f58">
          <tspan font-family="Helvetica Neue" font-size="16" fill="#353f58" x="28.656" y="15" xml:space="preserve">Completion</tspan>
          <tspan font-family="Helvetica Neue" font-size="16" fill="#353f58" x="47.624" y="33.448" xml:space="preserve">Model</tspan>
        </text>
      </g>
      <g id="Graphic_539">
        <path d="M 389 -700 L 521 -700 C 525.97056 -700 530 -695.9706 530 -691 L 530 -609 C 530 -604.02944 525.97056 -600 521 -600 L 389 -600 C 384.02944 -600 380 -604.02944 380 -609 L 380 -691 C 380 -695.9706 384.02944 -700 389 -700 Z" fill="white"/>
        <path d="M 389 -700 L 521 -700 C 525.97056 -700 530 -695.9706 530 -691 L 530 -609 C 530 -604.02944 525.97056 -600 521 -600 L 389 -600 C 384.02944 -600 380 -604.02944 380 -609 L 380 -691 C 380 -695.9706 384.02944 -700 389 -700 Z" stroke="black" stroke-linecap="round" stroke-linejoin="round" stroke-width="1"/>
        <text transform="translate(385 -668.448)" fill="#353f58">
          <tspan font-family="Helvetica Neue" font-size="16" fill="#353f58" x="22.592" y="15" xml:space="preserve">Conversation</tspan>
          <tspan font-family="Helvetica Neue" font-size="16" fill="#353f58" x="47.624" y="33.448" xml:space="preserve">Model</tspan>
        </text>
      </g>
      <g id="Line_540">
        <line x1="190" y1="-650" x2="159.9" y2="-650" marker-end="url(#FilledArrow_Marker)" stroke="#353f58" stroke-linecap="round" stroke-linejoin="round" stroke-width="1"/>
      </g>
      <g id="Line_541">
        <line x1="380" y1="-650" x2="349.9" y2="-650" marker-end="url(#FilledArrow_Marker)" stroke="#353f58" stroke-linecap="round" stroke-linejoin="round" stroke-width="1"/>
      </g>
      <g id="Graphic_542">
        <path d="M 579 -700 L 711 -700 C 715.9706 -700 720 -695.9706 720 -691 L 720 -609 C 720 -604.02944 715.9706 -600 711 -600 L 579 -600 C 574.02944 -600 570 -604.02944 570 -609 L 570 -691 C 570 -695.9706 574.02944 -700 579 -700 Z" fill="white"/>
        <path d="M 579 -700 L 711 -700 C 715.9706 -700 720 -695.9706 720 -691 L 720 -609 C 720 -604.02944 715.9706 -600 711 -600 L 579 -600 C 574.02944 -600 570 -604.02944 570 -609 L 570 -691 C 570 -695.9706 574.02944 -700 579 -700 Z" stroke="black" stroke-linecap="round" stroke-linejoin="round" stroke-width="1"/>
        <text transform="translate(575 -668.448)" fill="#353f58">
          <tspan font-family="Helvetica Neue" font-size="16" fill="#353f58" x="28.672" y="15" xml:space="preserve">Tool Calling</tspan>
          <tspan font-family="Helvetica Neue" font-size="16" fill="#353f58" x="47.624" y="33.448" xml:space="preserve">Model</tspan>
        </text>
      </g>
      <g id="Line_543">
        <line x1="570" y1="-650" x2="539.9" y2="-650" marker-end="url(#FilledArrow_Marker)" stroke="#353f58" stroke-linecap="round" stroke-linejoin="round" stroke-width="1"/>
      </g>
    </g>
  </g>
</svg>
