<?xml version="1.0" encoding="UTF-8" standalone="no"?>
<!DOCTYPE svg PUBLIC "-//W3C//DTD SVG 1.1//EN" "http://www.w3.org/Graphics/SVG/1.1/DTD/svg11.dtd">
<svg xmlns="http://www.w3.org/2000/svg" version="1.1" xmlns:dc="http://purl.org/dc/elements/1.1/" xmlns:xl="http://www.w3.org/1999/xlink" viewBox="3508 -6770 2202 1322" width="2202" height="1322">
  <defs/>
  <g id="Chapter-2" stroke="none" stroke-opacity="1" stroke-dasharray="none" fill-opacity="1" fill="none">
    <title>Chapter-2</title>
    <rect fill="white" x="3508" y="-6770" width="2202" height="1322"/>
    <g id="Chapter-2_Layer_1">
      <title>Layer 1</title>
      <g id="Graphic_841">
        <path d="M 3534 -6329 L 3924 -6329 C 3937.807 -6329 3949 -6317.807 3949 -6304 L 3949 -5914 C 3949 -5900.193 3937.807 -5889 3924 -5889 L 3534 -5889 C 3520.193 -5889 3509 -5900.193 3509 -5914 L 3509 -6304 C 3509 -6317.807 3520.193 -6329 3534 -6329 Z" fill="#f8f8ff"/>
        <path d="M 3534 -6329 L 3924 -6329 C 3937.807 -6329 3949 -6317.807 3949 -6304 L 3949 -5914 C 3949 -5900.193 3937.807 -5889 3924 -5889 L 3534 -5889 C 3520.193 -5889 3509 -5900.193 3509 -5914 L 3509 -6304 C 3509 -6317.807 3520.193 -6329 3534 -6329 Z" stroke="black" stroke-linecap="round" stroke-linejoin="round" stroke-dasharray="8.0,8.0" stroke-width="2"/>
      </g>
      <g id="Graphic_840">
        <path d="M 3554 -6169 L 3664 -6169 C 3666.7614 -6169 3669 -6166.7614 3669 -6164 L 3669 -6054 C 3669 -6051.2386 3666.7614 -6049 3664 -6049 L 3554 -6049 C 3551.2386 -6049 3549 -6051.2386 3549 -6054 L 3549 -6164 C 3549 -6166.7614 3551.2386 -6169 3554 -6169 Z" fill="white"/>
        <path d="M 3554 -6169 L 3664 -6169 C 3666.7614 -6169 3669 -6166.7614 3669 -6164 L 3669 -6054 C 3669 -6051.2386 3666.7614 -6049 3664 -6049 L 3554 -6049 C 3551.2386 -6049 3549 -6051.2386 3549 -6054 L 3549 -6164 C 3549 -6166.7614 3551.2386 -6169 3554 -6169 Z" stroke="black" stroke-linecap="round" stroke-linejoin="round" stroke-width="4"/>
      </g>
      <g id="Graphic_839">
        <path d="M 3794 -6289 L 3904 -6289 C 3906.7614 -6289 3909 -6286.7614 3909 -6284 L 3909 -6174 C 3909 -6171.2386 3906.7614 -6169 3904 -6169 L 3794 -6169 C 3791.2386 -6169 3789 -6171.2386 3789 -6174 L 3789 -6284 C 3789 -6286.7614 3791.2386 -6289 3794 -6289 Z" fill="white"/>
        <path d="M 3794 -6289 L 3904 -6289 C 3906.7614 -6289 3909 -6286.7614 3909 -6284 L 3909 -6174 C 3909 -6171.2386 3906.7614 -6169 3904 -6169 L 3794 -6169 C 3791.2386 -6169 3789 -6171.2386 3789 -6174 L 3789 -6284 C 3789 -6286.7614 3791.2386 -6289 3794 -6289 Z" stroke="black" stroke-linecap="round" stroke-linejoin="round" stroke-width="2"/>
      </g>
      <g id="Graphic_838">
        <path d="M 3794 -6049 L 3904 -6049 C 3906.7614 -6049 3909 -6046.7614 3909 -6044 L 3909 -5934 C 3909 -5931.2386 3906.7614 -5929 3904 -5929 L 3794 -5929 C 3791.2386 -5929 3789 -5931.2386 3789 -5934 L 3789 -6044 C 3789 -6046.7614 3791.2386 -6049 3794 -6049 Z" fill="white"/>
        <path d="M 3794 -6049 L 3904 -6049 C 3906.7614 -6049 3909 -6046.7614 3909 -6044 L 3909 -5934 C 3909 -5931.2386 3906.7614 -5929 3904 -5929 L 3794 -5929 C 3791.2386 -5929 3789 -5931.2386 3789 -5934 L 3789 -6044 C 3789 -6046.7614 3791.2386 -6049 3794 -6049 Z" stroke="black" stroke-linecap="round" stroke-linejoin="round" stroke-width="2"/>
      </g>
      <g id="Line_837">
        <path d="M 3669 -6139 L 3704 -6139 C 3717.807 -6139 3729 -6150.193 3729 -6164 L 3729 -6204 C 3729 -6217.807 3740.193 -6229 3754 -6229 L 3789 -6229" stroke="black" stroke-linecap="round" stroke-linejoin="round" stroke-width="1"/>
      </g>
      <g id="Line_836">
        <path d="M 3671 -6079 L 3704 -6079 C 3717.807 -6079 3729 -6067.807 3729 -6054 L 3729 -6014 C 3729 -6000.193 3740.193 -5989 3754 -5989 L 3789 -5989" stroke="black" stroke-linecap="round" stroke-linejoin="round" stroke-width="1"/>
      </g>
      <g id="Graphic_835">
        <path d="M 4414 -6769 L 4804 -6769 C 4817.807 -6769 4829 -6757.807 4829 -6744 L 4829 -6354 C 4829 -6340.193 4817.807 -6329 4804 -6329 L 4414 -6329 C 4400.193 -6329 4389 -6340.193 4389 -6354 L 4389 -6744 C 4389 -6757.807 4400.193 -6769 4414 -6769 Z" fill="#f8f8ff"/>
        <path d="M 4414 -6769 L 4804 -6769 C 4817.807 -6769 4829 -6757.807 4829 -6744 L 4829 -6354 C 4829 -6340.193 4817.807 -6329 4804 -6329 L 4414 -6329 C 4400.193 -6329 4389 -6340.193 4389 -6354 L 4389 -6744 C 4389 -6757.807 4400.193 -6769 4414 -6769 Z" stroke="black" stroke-linecap="round" stroke-linejoin="round" stroke-dasharray="8.0,8.0" stroke-width="2"/>
      </g>
      <g id="Graphic_834">
        <path d="M 4434 -6609 L 4544 -6609 C 4546.7614 -6609 4549 -6606.7614 4549 -6604 L 4549 -6494 C 4549 -6491.2386 4546.7614 -6489 4544 -6489 L 4434 -6489 C 4431.2386 -6489 4429 -6491.2386 4429 -6494 L 4429 -6604 C 4429 -6606.7614 4431.2386 -6609 4434 -6609 Z" fill="white"/>
        <path d="M 4434 -6609 L 4544 -6609 C 4546.7614 -6609 4549 -6606.7614 4549 -6604 L 4549 -6494 C 4549 -6491.2386 4546.7614 -6489 4544 -6489 L 4434 -6489 C 4431.2386 -6489 4429 -6491.2386 4429 -6494 L 4429 -6604 C 4429 -6606.7614 4431.2386 -6609 4434 -6609 Z" stroke="black" stroke-linecap="round" stroke-linejoin="round" stroke-width="4"/>
      </g>
      <g id="Graphic_833">
        <path d="M 4674 -6609 L 4784 -6609 C 4786.7614 -6609 4789 -6606.7614 4789 -6604 L 4789 -6494 C 4789 -6491.2386 4786.7614 -6489 4784 -6489 L 4674 -6489 C 4671.2386 -6489 4669 -6491.2386 4669 -6494 L 4669 -6604 C 4669 -6606.7614 4671.2386 -6609 4674 -6609 Z" fill="white"/>
        <path d="M 4674 -6609 L 4784 -6609 C 4786.7614 -6609 4789 -6606.7614 4789 -6604 L 4789 -6494 C 4789 -6491.2386 4786.7614 -6489 4784 -6489 L 4674 -6489 C 4671.2386 -6489 4669 -6491.2386 4669 -6494 L 4669 -6604 C 4669 -6606.7614 4671.2386 -6609 4674 -6609 Z" stroke="black" stroke-linecap="round" stroke-linejoin="round" stroke-width="2"/>
      </g>
      <g id="Line_832">
        <line x1="4551" y1="-6549" x2="4668" y2="-6549" stroke="black" stroke-linecap="round" stroke-linejoin="round" stroke-width="1"/>
      </g>
      <g id="Graphic_831">
        <path d="M 4414 -5889 L 4804 -5889 C 4817.807 -5889 4829 -5877.807 4829 -5864 L 4829 -5474 C 4829 -5460.193 4817.807 -5449 4804 -5449 L 4414 -5449 C 4400.193 -5449 4389 -5460.193 4389 -5474 L 4389 -5864 C 4389 -5877.807 4400.193 -5889 4414 -5889 Z" fill="#f8f8ff"/>
        <path d="M 4414 -5889 L 4804 -5889 C 4817.807 -5889 4829 -5877.807 4829 -5864 L 4829 -5474 C 4829 -5460.193 4817.807 -5449 4804 -5449 L 4414 -5449 C 4400.193 -5449 4389 -5460.193 4389 -5474 L 4389 -5864 C 4389 -5877.807 4400.193 -5889 4414 -5889 Z" stroke="black" stroke-linecap="round" stroke-linejoin="round" stroke-dasharray="8.0,8.0" stroke-width="2"/>
      </g>
      <g id="Graphic_830">
        <path d="M 4434 -5729 L 4544 -5729 C 4546.7614 -5729 4549 -5726.7614 4549 -5724 L 4549 -5614 C 4549 -5611.2386 4546.7614 -5609 4544 -5609 L 4434 -5609 C 4431.2386 -5609 4429 -5611.2386 4429 -5614 L 4429 -5724 C 4429 -5726.7614 4431.2386 -5729 4434 -5729 Z" fill="white"/>
        <path d="M 4434 -5729 L 4544 -5729 C 4546.7614 -5729 4549 -5726.7614 4549 -5724 L 4549 -5614 C 4549 -5611.2386 4546.7614 -5609 4544 -5609 L 4434 -5609 C 4431.2386 -5609 4429 -5611.2386 4429 -5614 L 4429 -5724 C 4429 -5726.7614 4431.2386 -5729 4434 -5729 Z" stroke="black" stroke-linecap="round" stroke-linejoin="round" stroke-width="4"/>
      </g>
      <g id="Graphic_829">
        <path d="M 4674 -5729 L 4784 -5729 C 4786.7614 -5729 4789 -5726.7614 4789 -5724 L 4789 -5614 C 4789 -5611.2386 4786.7614 -5609 4784 -5609 L 4674 -5609 C 4671.2386 -5609 4669 -5611.2386 4669 -5614 L 4669 -5724 C 4669 -5726.7614 4671.2386 -5729 4674 -5729 Z" fill="white"/>
        <path d="M 4674 -5729 L 4784 -5729 C 4786.7614 -5729 4789 -5726.7614 4789 -5724 L 4789 -5614 C 4789 -5611.2386 4786.7614 -5609 4784 -5609 L 4674 -5609 C 4671.2386 -5609 4669 -5611.2386 4669 -5614 L 4669 -5724 C 4669 -5726.7614 4671.2386 -5729 4674 -5729 Z" stroke="black" stroke-linecap="round" stroke-linejoin="round" stroke-width="2"/>
      </g>
      <g id="Line_828">
        <line x1="4551" y1="-5669" x2="4668" y2="-5669" stroke="black" stroke-linecap="round" stroke-linejoin="round" stroke-width="1"/>
      </g>
      <g id="Graphic_827">
        <path d="M 5294 -5889 L 5684 -5889 C 5697.807 -5889 5709 -5877.807 5709 -5864 L 5709 -5474 C 5709 -5460.193 5697.807 -5449 5684 -5449 L 5294 -5449 C 5280.193 -5449 5269 -5460.193 5269 -5474 L 5269 -5864 C 5269 -5877.807 5280.193 -5889 5294 -5889 Z" fill="#f8f8ff"/>
        <path d="M 5294 -5889 L 5684 -5889 C 5697.807 -5889 5709 -5877.807 5709 -5864 L 5709 -5474 C 5709 -5460.193 5697.807 -5449 5684 -5449 L 5294 -5449 C 5280.193 -5449 5269 -5460.193 5269 -5474 L 5269 -5864 C 5269 -5877.807 5280.193 -5889 5294 -5889 Z" stroke="black" stroke-linecap="round" stroke-linejoin="round" stroke-dasharray="8.0,8.0" stroke-width="2"/>
      </g>
      <g id="Graphic_826">
        <path d="M 5314 -5729 L 5424 -5729 C 5426.7614 -5729 5429 -5726.7614 5429 -5724 L 5429 -5614 C 5429 -5611.2386 5426.7614 -5609 5424 -5609 L 5314 -5609 C 5311.2386 -5609 5309 -5611.2386 5309 -5614 L 5309 -5724 C 5309 -5726.7614 5311.2386 -5729 5314 -5729 Z" fill="white"/>
        <path d="M 5314 -5729 L 5424 -5729 C 5426.7614 -5729 5429 -5726.7614 5429 -5724 L 5429 -5614 C 5429 -5611.2386 5426.7614 -5609 5424 -5609 L 5314 -5609 C 5311.2386 -5609 5309 -5611.2386 5309 -5614 L 5309 -5724 C 5309 -5726.7614 5311.2386 -5729 5314 -5729 Z" stroke="black" stroke-linecap="round" stroke-linejoin="round" stroke-width="4"/>
      </g>
      <g id="Graphic_825">
        <path d="M 5554 -5849 L 5664 -5849 C 5666.7614 -5849 5669 -5846.7614 5669 -5844 L 5669 -5734 C 5669 -5731.2386 5666.7614 -5729 5664 -5729 L 5554 -5729 C 5551.2386 -5729 5549 -5731.2386 5549 -5734 L 5549 -5844 C 5549 -5846.7614 5551.2386 -5849 5554 -5849 Z" fill="white"/>
        <path d="M 5554 -5849 L 5664 -5849 C 5666.7614 -5849 5669 -5846.7614 5669 -5844 L 5669 -5734 C 5669 -5731.2386 5666.7614 -5729 5664 -5729 L 5554 -5729 C 5551.2386 -5729 5549 -5731.2386 5549 -5734 L 5549 -5844 C 5549 -5846.7614 5551.2386 -5849 5554 -5849 Z" stroke="black" stroke-linecap="round" stroke-linejoin="round" stroke-width="2"/>
      </g>
      <g id="Graphic_824">
        <path d="M 5554 -5609 L 5664 -5609 C 5666.7614 -5609 5669 -5606.7614 5669 -5604 L 5669 -5494 C 5669 -5491.2386 5666.7614 -5489 5664 -5489 L 5554 -5489 C 5551.2386 -5489 5549 -5491.2386 5549 -5494 L 5549 -5604 C 5549 -5606.7614 5551.2386 -5609 5554 -5609 Z" fill="white"/>
        <path d="M 5554 -5609 L 5664 -5609 C 5666.7614 -5609 5669 -5606.7614 5669 -5604 L 5669 -5494 C 5669 -5491.2386 5666.7614 -5489 5664 -5489 L 5554 -5489 C 5551.2386 -5489 5549 -5491.2386 5549 -5494 L 5549 -5604 C 5549 -5606.7614 5551.2386 -5609 5554 -5609 Z" stroke="black" stroke-linecap="round" stroke-linejoin="round" stroke-width="2"/>
      </g>
      <g id="Line_823">
        <path d="M 5431 -5699 L 5464 -5699 C 5477.807 -5699 5489 -5710.193 5489 -5724 L 5489 -5764 C 5489 -5777.807 5500.193 -5789 5514 -5789 L 5549 -5789" stroke="black" stroke-linecap="round" stroke-linejoin="round" stroke-width="1"/>
      </g>
      <g id="Line_822">
        <path d="M 5431 -5639 L 5464 -5639 C 5477.807 -5639 5489 -5627.807 5489 -5614 L 5489 -5574 C 5489 -5560.193 5500.193 -5549 5514 -5549 L 5549 -5549" stroke="black" stroke-linecap="round" stroke-linejoin="round" stroke-width="1"/>
      </g>
      <g id="Graphic_821">
        <path d="M 5294 -6769 L 5684 -6769 C 5697.807 -6769 5709 -6757.807 5709 -6744 L 5709 -6354 C 5709 -6340.193 5697.807 -6329 5684 -6329 L 5294 -6329 C 5280.193 -6329 5269 -6340.193 5269 -6354 L 5269 -6744 C 5269 -6757.807 5280.193 -6769 5294 -6769 Z" fill="#f8f8ff"/>
        <path d="M 5294 -6769 L 5684 -6769 C 5697.807 -6769 5709 -6757.807 5709 -6744 L 5709 -6354 C 5709 -6340.193 5697.807 -6329 5684 -6329 L 5294 -6329 C 5280.193 -6329 5269 -6340.193 5269 -6354 L 5269 -6744 C 5269 -6757.807 5280.193 -6769 5294 -6769 Z" stroke="black" stroke-linecap="round" stroke-linejoin="round" stroke-dasharray="8.0,8.0" stroke-width="2"/>
      </g>
      <g id="Graphic_820">
        <path d="M 5314 -6609 L 5424 -6609 C 5426.7614 -6609 5429 -6606.7614 5429 -6604 L 5429 -6494 C 5429 -6491.2386 5426.7614 -6489 5424 -6489 L 5314 -6489 C 5311.2386 -6489 5309 -6491.2386 5309 -6494 L 5309 -6604 C 5309 -6606.7614 5311.2386 -6609 5314 -6609 Z" fill="white"/>
        <path d="M 5314 -6609 L 5424 -6609 C 5426.7614 -6609 5429 -6606.7614 5429 -6604 L 5429 -6494 C 5429 -6491.2386 5426.7614 -6489 5424 -6489 L 5314 -6489 C 5311.2386 -6489 5309 -6491.2386 5309 -6494 L 5309 -6604 C 5309 -6606.7614 5311.2386 -6609 5314 -6609 Z" stroke="black" stroke-linecap="round" stroke-linejoin="round" stroke-width="4"/>
      </g>
      <g id="Graphic_819">
        <path d="M 5554 -6729 L 5664 -6729 C 5666.7614 -6729 5669 -6726.7614 5669 -6724 L 5669 -6614 C 5669 -6611.2386 5666.7614 -6609 5664 -6609 L 5554 -6609 C 5551.2386 -6609 5549 -6611.2386 5549 -6614 L 5549 -6724 C 5549 -6726.7614 5551.2386 -6729 5554 -6729 Z" fill="white"/>
        <path d="M 5554 -6729 L 5664 -6729 C 5666.7614 -6729 5669 -6726.7614 5669 -6724 L 5669 -6614 C 5669 -6611.2386 5666.7614 -6609 5664 -6609 L 5554 -6609 C 5551.2386 -6609 5549 -6611.2386 5549 -6614 L 5549 -6724 C 5549 -6726.7614 5551.2386 -6729 5554 -6729 Z" stroke="black" stroke-linecap="round" stroke-linejoin="round" stroke-width="2"/>
      </g>
      <g id="Graphic_818">
        <path d="M 5554 -6489 L 5664 -6489 C 5666.7614 -6489 5669 -6486.7614 5669 -6484 L 5669 -6374 C 5669 -6371.2386 5666.7614 -6369 5664 -6369 L 5554 -6369 C 5551.2386 -6369 5549 -6371.2386 5549 -6374 L 5549 -6484 C 5549 -6486.7614 5551.2386 -6489 5554 -6489 Z" fill="white"/>
        <path d="M 5554 -6489 L 5664 -6489 C 5666.7614 -6489 5669 -6486.7614 5669 -6484 L 5669 -6374 C 5669 -6371.2386 5666.7614 -6369 5664 -6369 L 5554 -6369 C 5551.2386 -6369 5549 -6371.2386 5549 -6374 L 5549 -6484 C 5549 -6486.7614 5551.2386 -6489 5554 -6489 Z" stroke="black" stroke-linecap="round" stroke-linejoin="round" stroke-width="2"/>
      </g>
      <g id="Line_817">
        <path d="M 5431 -6579 L 5464 -6579 C 5477.807 -6579 5489 -6590.193 5489 -6604 L 5489 -6644 C 5489 -6657.807 5500.193 -6669 5514 -6669 L 5549 -6669" stroke="black" stroke-linecap="round" stroke-linejoin="round" stroke-width="1"/>
      </g>
      <g id="Line_816">
        <path d="M 5431 -6519 L 5464 -6519 C 5477.807 -6519 5489 -6507.807 5489 -6494 L 5489 -6454 C 5489 -6440.193 5500.193 -6429 5514 -6429 L 5549 -6429" stroke="black" stroke-linecap="round" stroke-linejoin="round" stroke-width="1"/>
      </g>
      <g id="Line_815">
        <line x1="4790" y1="-6549" x2="5307" y2="-6549" stroke="black" stroke-linecap="round" stroke-linejoin="round" stroke-width="1"/>
      </g>
      <g id="Line_814">
        <line x1="4790" y1="-5669" x2="5307" y2="-5669" stroke="black" stroke-linecap="round" stroke-linejoin="round" stroke-width="1"/>
      </g>
      <g id="Line_813">
        <path d="M 3909 -6229 L 4144 -6229 C 4157.807 -6229 4169 -6240.193 4169 -6254 L 4169 -6524 C 4169 -6537.807 4180.193 -6549 4194 -6549 L 4429 -6549" stroke="black" stroke-linecap="round" stroke-linejoin="round" stroke-width="1"/>
      </g>
      <g id="Line_812">
        <path d="M 3909 -5989 L 4144 -5989 C 4157.807 -5989 4169 -5977.807 4169 -5964 L 4169 -5694 C 4169 -5680.193 4180.193 -5669 4194 -5669 L 4429 -5669" stroke="black" stroke-linecap="round" stroke-linejoin="round" stroke-width="1"/>
      </g>
      <g id="Graphic_842">
        <text transform="translate(3822 -6292.259)" fill="#b1001c">
          <tspan font-family="Helvetica Neue" font-size="90" fill="#b1001c" x="0" y="86" xml:space="preserve">×</tspan>
        </text>
      </g>
    </g>
  </g>
</svg>
